<svg xmlns="http://www.w3.org/2000/svg" viewBox="0 0 500 500"><g id="freepik--Device--inject-5"><g id="freepik--device--inject-5"><g id="freepik--Case--inject-5"><path d="M300.8,275.63l4.47-2.58s23.74-77.47,26-82-1.78-6.78-6.06-4.31L102.25,315.31c-4.28,2.47-5.63,5.86-9.43,13.25s-25.25,78.57-25.25,78.57a4,4,0,0,0,1.91,4.18l50.76,29.4L353.4,306.1Z" style="fill:#00EB84"></path><path d="M300.8,275.63l4.47-2.58s23.74-77.47,26-82-1.78-6.78-6.06-4.31L102.25,315.31c-4.28,2.47-5.63,5.86-9.43,13.25s-25.25,78.57-25.25,78.57a4,4,0,0,0,1.91,4.18l50.76,29.4L353.4,306.1Z" style="fill:#fff;opacity:0.35000000000000003"></path><path d="M95.62,330.35c-2.89,5.6-25.22,78.3-25.22,78.3L308.09,271.42s23.57-73.89,25.93-78.54-1.78-6.78-6.06-4.32L105,317.1C100.77,319.57,98.51,324.75,95.62,330.35Z" style="fill:#00EB84"></path><path d="M95.62,330.35c-2.89,5.6-25.22,78.3-25.22,78.3L308.09,271.42s23.57-73.89,25.93-78.54-1.78-6.78-6.06-4.32L105,317.1C100.77,319.57,98.51,324.75,95.62,330.35Z" style="opacity:0.15"></path><polygon points="303.56 274.04 70.4 408.65 122.03 438.46 355.2 303.86 303.56 274.04" style="fill:#00EB84"></polygon><path d="M319.8,104.27,95.16,233.72c-4.93,2.85-6.46,7.45-5.59,13.52L116.15,433.8c.87,6.07,5.7,9.61,10.62,6.77L349.42,312.08c4.93-2.85,8.22-10.07,7.35-16.13L330.29,110.1C329.42,104,324.72,101.42,319.8,104.27Z" style="fill:#00EB84"></path><path d="M319.8,104.27,95.16,233.72c-4.93,2.85-6.46,7.45-5.59,13.52L116.15,433.8c.87,6.07,5.7,9.61,10.62,6.77L349.42,312.08c4.93-2.85,8.22-10.07,7.35-16.13L330.29,110.1C329.42,104,324.72,101.42,319.8,104.27Z" style="fill:#fff;opacity:0.35000000000000003"></path></g><g id="freepik--Tablet--inject-5"><path d="M334.94,108.23a6.94,6.94,0,0,0-6.06.75L106.23,237.48a14.89,14.89,0,0,0-5.68,6.52L93.36,241c1.58-3.45,4.33-4.7,6.69-6.08l222.64-128.5a6.88,6.88,0,0,1,6.29-.65h0Z" style="fill:#455a64"></path><path d="M123.37,442.45h0c-2.21-.91-3.85-3.2-4.33-6.54L92.7,251c-.54-3.79-.72-7.19.66-10.05l7.19,3.05c-.19.39-.37.8-.54,1.21s-.25.67-.35,1a1,1,0,0,0,0,.16,11.77,11.77,0,0,0-.33,1.16c-.11.4-.2.82-.27,1.22s-.1.61-.13.92a14.85,14.85,0,0,0,0,3.94l26.48,185.84c.48,3.37,2.15,5.68,4.38,6.58Z" style="fill:#263238"></path><path d="M328.88,109,104.24,238.45c-4.92,2.84-6.46,7.45-5.59,13.51l26.71,187.5c.87,6.07,5.57,8.68,10.49,5.83L358.5,316.8c4.93-2.84,8.22-10.06,7.35-16.13L339.37,114.82C338.5,108.76,333.8,106.15,328.88,109Z" style="fill:#37474f"></path><path d="M344.83,316,146.09,430.63c-2.55,1.48-5,.12-5.43-3L114.44,243.69a8.86,8.86,0,0,1,3.81-8.36L317,120.64c2.55-1.47,5-.12,5.43,3l26.22,183.92A8.87,8.87,0,0,1,344.83,316Z" style="fill:#263238"></path><path d="M114.44,243.69l26.22,183.92c0,.13,0,.24.07.36L339.46,313.29a8.85,8.85,0,0,0,3.81-8.36L317,120.64,118.25,235.33A8.86,8.86,0,0,0,114.44,243.69Z" style="fill:#fafafa"></path><path d="M124.58,357.58a4.43,4.43,0,0,1-1.92,4.2c-1.28.74-2.51.06-2.73-1.52a4.47,4.47,0,0,1,1.91-4.21C123.13,355.31,124.35,356,124.58,357.58Z" style="fill:#263238"></path><path d="M115.89,314.51h0a3.45,3.45,0,0,0-1.49,3.27l4.34,30.28c.18,1.23,1.13,1.76,2.13,1.18h0a3.47,3.47,0,0,0,1.49-3.27L118,315.69C117.84,314.46,116.89,313.93,115.89,314.51Z" style="fill:#263238"></path></g><g style="opacity:0.5"><polygon points="145.22 412.73 139.89 375.52 181.82 267.46 261.82 301.57 248.93 286.66 285.51 235.97 330.03 256.34 336.61 302.25 145.22 412.73" style="fill:#00EB84"></polygon><path d="M256.46,222.51c1.05,7.31,6.06,10.82,11.19,7.86s8.45-11.29,7.41-18.59S269,201,263.86,203.92,255.41,215.21,256.46,222.51Z" style="fill:#00EB84"></path></g></g></g><g id="freepik--Screen--inject-5"><g id="freepik--video-window--inject-5"><g id="freepik--window--inject-5"><path d="M345,69.75a1.38,1.38,0,0,0-.12-.34s0,0,0-.07a1.57,1.57,0,0,0-.15-.32,1.81,1.81,0,0,0-.32-.46.75.75,0,0,0-.17-.19.81.81,0,0,0-.14-.12,1.18,1.18,0,0,0-.32-.23l0,0a2.66,2.66,0,0,0-.39-.16,3.45,3.45,0,0,0-2.84.43L140.2,183.51c-2.19,1.26-3.71,4.2-3.12,8.3l25.69,179.43c.28,1.94,2.9,3.06,4.72,2L367.68,258a7.08,7.08,0,0,0,3.37-6.54L345.1,70.21C345.08,70.05,345,69.89,345,69.75Z" style="fill:#455a64;opacity:0.9"></path><path d="M343.35,67.83a3.45,3.45,0,0,0-2.84.43L140.2,183.51a7.09,7.09,0,0,0-3.37,6.54l1,7.13L132,194.65l-1-7a7.07,7.07,0,0,1,3.36-6.53L334.66,65.83a3.36,3.36,0,0,1,3.08-.35C338.57,65.85,342.38,67.45,343.35,67.83Z" style="fill:#00EB84"></path><path d="M345.09,70.18c-.35-2.32-2.39-3.18-4.58-1.92L140.2,183.51a7.12,7.12,0,0,0-3.37,6.54l1,7.14L346.12,77.36Z" style="fill:#00EB84"></path><path d="M340.51,68.26,140.21,183.51a7.1,7.1,0,0,0-2.63,2.85l-5.83-2.48a7,7,0,0,1,2.6-2.81L334.66,65.83a3.36,3.36,0,0,1,3.08-.35c.83.37,4.63,2,5.59,2.34A3.42,3.42,0,0,0,340.51,68.26Z" style="fill:#fff;opacity:0.30000000000000004"></path><path d="M132,194.67l-1-7.06a6.4,6.4,0,0,1,.77-3.73l5.84,2.47a6.2,6.2,0,0,0-.75,3.7l1,7.14Z" style="opacity:0.15"></path><path d="M329.29,78.42a3.18,3.18,0,0,0-1.2,3c.17,1.19,1,1.76,1.82,1.28a3.17,3.17,0,0,0,1.2-3C330.94,78.51,330.13,77.94,329.29,78.42Z" style="fill:#fff"></path><path d="M334.73,75.27a3.19,3.19,0,0,0-1.2,3c.17,1.18,1,1.76,1.82,1.27a3.17,3.17,0,0,0,1.2-3C336.38,75.36,335.57,74.79,334.73,75.27Z" style="fill:#fff"></path><path d="M340.18,72.13a3.15,3.15,0,0,0-1.21,3c.17,1.19,1,1.76,1.82,1.28a3.18,3.18,0,0,0,1.21-3C341.83,72.21,341,71.64,340.18,72.13Z" style="fill:#fff"></path><path d="M164.63,373.4l-.24-.1-4.83-2.06a4.54,4.54,0,0,1-2.65-2.75,5.23,5.23,0,0,1-.12-.54L132,194.66l5.87,2.53,24.92,174.05a2.42,2.42,0,0,0,.33.89A3.32,3.32,0,0,0,164.63,373.4Z" style="fill:#263238;opacity:0.9"></path></g><g id="freepik--Bar--inject-5"><path d="M371.05,251.45l-1.76-12.34L161.07,359.33l1.7,11.91c.28,1.94,2.9,3.06,4.72,2L367.68,258A7.08,7.08,0,0,0,371.05,251.45Z" style="fill:#00EB84"></path><path d="M163.1,372.13a2.42,2.42,0,0,1-.33-.89l-1.7-11.91-5.87-2.52L156.79,368a5.23,5.23,0,0,0,.12.54,4.54,4.54,0,0,0,2.65,2.75l4.83,2.06.17.07A3.26,3.26,0,0,1,163.1,372.13Z" style="fill:#00EB84"></path><path d="M163.1,372.13a2.42,2.42,0,0,1-.33-.89l-1.7-11.91-5.87-2.52L156.79,368a5.23,5.23,0,0,0,.12.54,4.54,4.54,0,0,0,2.65,2.75l4.83,2.06.17.07A3.26,3.26,0,0,1,163.1,372.13Z" style="opacity:0.15"></path><path d="M190.15,353.5l-.67-4.66c0-.33.16-.7.39-.71l4.78-.24c.32,0,.4.58.13.9l-4.11,4.9C190.47,353.93,190.2,353.83,190.15,353.5Z" style="fill:#fff"></path><path d="M200.5,347.52l-.67-4.66c-.05-.33.16-.7.39-.71l4.78-.23c.32,0,.4.57.13.9L201,347.71C200.81,348,200.55,347.86,200.5,347.52Z" style="fill:#fff"></path><path d="M206,344.85h0c-.19.11-.37,0-.4-.22l-.69-4.78a.66.66,0,0,1,.28-.62h0c.19-.1.37,0,.4.23l.69,4.78A.67.67,0,0,1,206,344.85Z" style="fill:#fff"></path><path d="M174.57,362.49l-.66-4.66c0-.33-.32-.43-.52-.18l-4.11,4.89c-.27.32-.19.92.13.9l4.77-.23C174.42,363.19,174.62,362.83,174.57,362.49Z" style="fill:#fff"></path><path d="M169.18,366.12h0a.62.62,0,0,0,.28-.61l-.68-4.78a.26.26,0,0,0-.4-.23h0a.66.66,0,0,0-.28.62l.68,4.78C168.82,366.13,169,366.23,169.18,366.12Z" style="fill:#fff"></path><path d="M347.64,264.31a.59.59,0,0,1-.23,0,.44.44,0,0,1-.27-.33l-.81-5.64a.33.33,0,0,1,.18-.34l8.11-4.68a.48.48,0,0,1,.44,0,.41.41,0,0,1,.27.32l.81,5.64a.35.35,0,0,1-.18.35l-8.11,4.68A.47.47,0,0,1,347.64,264.31Zm-.39-5.83.69,4.76,7.28-4.2-.69-4.76Z" style="fill:#fff"></path><path d="M360,253.33a.48.48,0,0,1-.5-.37l-.32-2.26a.34.34,0,0,1,.17-.34l2-1.14a.52.52,0,0,1,.63.12.34.34,0,0,1-.09.53l-1.76,1,.3,2.05A.38.38,0,0,1,360,253.33Z" style="fill:#fff"></path><path d="M365.34,250.24a.47.47,0,0,1-.5-.36l-.23-1.6-1.34.77a.52.52,0,0,1-.63-.11.34.34,0,0,1,.08-.53l2-1.14a.52.52,0,0,1,.44,0,.42.42,0,0,1,.27.33l.33,2.26A.37.37,0,0,1,365.34,250.24Z" style="fill:#fff"></path><path d="M364,255.65a.51.51,0,0,1-.42-.17.34.34,0,0,1,.09-.53l1.76-1-.3-2a.38.38,0,0,1,.4-.4.47.47,0,0,1,.5.37l.32,2.26a.34.34,0,0,1-.17.34l-2,1.13A.39.39,0,0,1,364,255.65Z" style="fill:#fff"></path><path d="M360.61,257.61a.59.59,0,0,1-.23-.05.4.4,0,0,1-.27-.32l-.33-2.26a.39.39,0,0,1,.39-.41.48.48,0,0,1,.5.37l.23,1.6,1.34-.77a.51.51,0,0,1,.63.11.34.34,0,0,1-.08.53l-2,1.14A.73.73,0,0,1,360.61,257.61Z" style="fill:#fff"></path><path d="M335.91,268.32l.81-.35a.09.09,0,0,1,.12,0,2.27,2.27,0,0,0,.29.48s0,.14,0,.23l-.35.94c0,.1,0,.19,0,.21l.75.42s.1,0,.15-.13l.47-.87c.05-.09.12-.15.17-.15a1.49,1.49,0,0,0,.51,0,.1.1,0,0,1,.11.08l.23.93a.08.08,0,0,0,.12.05l.86-.5a.23.23,0,0,0,.09-.18l-.05-1a.31.31,0,0,1,.09-.23,3.41,3.41,0,0,0,.39-.45c0-.07.12-.12.16-.11l.73.26s.1-.05.15-.14l.46-1c0-.09,0-.19,0-.21l-.62-.49a.3.3,0,0,1,0-.22,4.31,4.31,0,0,0,.1-.61.33.33,0,0,1,.11-.22l.75-.55a.18.18,0,0,0,.08-.18l-.15-1.07a.08.08,0,0,0-.11-.07l-.8.35a.1.1,0,0,1-.13-.05,2.75,2.75,0,0,0-.28-.48.26.26,0,0,1,0-.23l.35-.94c0-.1,0-.19,0-.21l-.75-.42s-.1,0-.15.13l-.48.87c-.05.09-.12.15-.16.15a2.3,2.3,0,0,0-.52,0s-.09,0-.11-.08l-.22-.93a.08.08,0,0,0-.12-.05l-.87.5a.19.19,0,0,0-.08.18l.05,1a.37.37,0,0,1-.1.23,5.63,5.63,0,0,0-.38.45c-.06.07-.13.12-.17.11l-.73-.26s-.1.05-.14.14l-.46,1c0,.09-.05.19,0,.21l.63.5s0,.12,0,.21a4.28,4.28,0,0,0-.09.61.38.38,0,0,1-.11.22l-.76.55a.21.21,0,0,0-.08.18l.15,1.07A.08.08,0,0,0,335.91,268.32Zm1.74-1.72a2.82,2.82,0,0,1,1.2-2.64c.81-.47,1.58,0,1.72,1a2.78,2.78,0,0,1-1.2,2.64C338.56,268,337.79,267.6,337.65,266.6Z" style="fill:#fff"></path><path d="M181,359.34l-.87.5a.14.14,0,0,1-.22-.13l-.74-5.14a.36.36,0,0,1,.16-.35l.87-.5c.1-.06.2,0,.22.13l.74,5.14A.36.36,0,0,1,181,359.34Z" style="fill:#fff"></path><path d="M183.86,357.65l-.86.51c-.11.06-.21,0-.23-.13l-.74-5.14a.41.41,0,0,1,.16-.35l.87-.5a.15.15,0,0,1,.23.12l.73,5.15A.35.35,0,0,1,183.86,357.65Z" style="fill:#fff"></path></g></g></g><g id="freepik--buttons-2--inject-5"><g id="freepik--Buttons--inject-5"><path d="M271,427.86l-16.54-9.55c-1.19-.69-1-1.75.39-2.07l27.69-6.44c1.83-.43,3.93.78,3.2,1.84l-11.16,16C274,428.42,272.16,428.54,271,427.86Z" style="fill:#e0e0e0"></path><path d="M308.26,406.33l-16.54-9.55c-1.18-.68-1-1.75.39-2.07l27.69-6.44c1.84-.42,3.94.79,3.2,1.85l-11.15,16C311.29,406.9,309.45,407,308.26,406.33Z" style="fill:#e0e0e0"></path><path d="M333.82,393.54h0a3.28,3.28,0,0,1-3,0l-17-9.8a.91.91,0,0,1,0-1.72h0a3.28,3.28,0,0,1,3,0l17,9.81A.9.9,0,0,1,333.82,393.54Z" style="fill:#e0e0e0"></path><path d="M222.8,455.67l-16.54-9.55c-1.19-.68-3-.56-3.59.23l-11.15,16c-.74,1.06,1.36,2.27,3.2,1.84l27.69-6.44C223.78,457.42,224,456.36,222.8,455.67Z" style="fill:#e0e0e0"></path><path d="M200.64,470.43h0a.9.9,0,0,0,0-1.71l-17-9.81a3.28,3.28,0,0,0-3,0h0a.91.91,0,0,0,0,1.72l17,9.8A3.28,3.28,0,0,0,200.64,470.43Z" style="fill:#e0e0e0"></path><path d="M244.14,445.34l-3.8,2.2a1.89,1.89,0,0,1-1.67,0L220.4,437a.51.51,0,0,1,0-1l3.8-2.2a1.91,1.91,0,0,1,1.68,0l18.26,10.55C244.6,444.64,244.6,445.07,244.14,445.34Z" style="fill:#e0e0e0"></path><path d="M256.88,438l-3.8,2.2a1.89,1.89,0,0,1-1.67,0l-18.26-10.55c-.46-.26-.46-.69,0-1l3.8-2.2a1.89,1.89,0,0,1,1.67,0L256.88,437A.51.51,0,0,1,256.88,438Z" style="fill:#e0e0e0"></path><path d="M192.27,481.54a9.35,9.35,0,0,1-4.58-1.1l-23.84-13.76a3.12,3.12,0,0,1,0-5.86L317.67,372a10.13,10.13,0,0,1,9.16,0l23.84,13.76a3.13,3.13,0,0,1,0,5.87l-153.82,88.8A9.37,9.37,0,0,1,192.27,481.54Zm130-109.64a8.45,8.45,0,0,0-4.08,1L164.35,461.68a2.16,2.16,0,0,0,0,4.14l23.84,13.76a9,9,0,0,0,8.16,0l153.82-88.81a2.15,2.15,0,0,0,0-4.13l-23.84-13.77A8.43,8.43,0,0,0,322.25,371.9Z" style="fill:#e0e0e0"></path></g></g><g id="freepik--Plant--inject-5"><g id="freepik--plant--inject-5"><g id="freepik--pot--inject-5"><g id="freepik--pot--inject-5"><path d="M87.93,432.07h-45l4.65,19.38h0c.35,2.34,2.07,4.62,5.17,6.41,7,4,18.35,4,25.34,0,3.34-1.92,5.07-4.42,5.22-6.94Z" style="fill:#37474f"></path><path d="M82.44,445.35a18.33,18.33,0,0,0,2.7-1.88l2.53-10.36a17.87,17.87,0,0,1-4.55,3.62c-9.49,5.48-24.71,5.62-34.52.45l1.14-4.62-.35-.49H42.93l4.65,19.37h0c.35,2.34,2.07,4.62,5.17,6.41,5,2.88,12.17,3.7,18.43,2.47-11.22.84-18.91-4.06-20.06-8.58-.46-1.8-1.27-5.79-1.27-5.79C59.23,450.7,73.49,450.51,82.44,445.35Z" style="fill:#263238"></path><path d="M90.27,426.33a9.38,9.38,0,0,1-1.5,3.5,16.66,16.66,0,0,1-5.65,5c-9.77,5.64-25.61,5.64-35.38,0a16.61,16.61,0,0,1-5.64-5,9.38,9.38,0,0,1-1.5-3.5h0c-.87-4.23,1.52-8.65,7.15-11.91,9.77-5.64,25.61-5.64,35.38,0C88.75,417.68,91.14,422.1,90.27,426.33Z" style="fill:#455a64"></path><path d="M88.77,429.83a16.66,16.66,0,0,1-5.65,5c-9.77,5.64-25.61,5.64-35.38,0a16.61,16.61,0,0,1-5.64-5,9.38,9.38,0,0,1-1.5-3.5h0L41.7,434c.51,3.07,2.8,6.06,6.88,8.41,9.31,5.37,24.4,5.37,33.71,0,4-2.32,6.3-5.27,6.85-8.3l.06-.39,1.07-7.35A9.38,9.38,0,0,1,88.77,429.83Z" style="fill:#37474f"></path><path d="M80.17,416.12c-8.14-4.7-21.34-4.7-29.48,0-4.6,2.67-6.6,6.26-6,9.73.47,2.66,2.47,5.25,6,7.29,8.14,4.7,21.34,4.7,29.48,0,3.53-2,5.53-4.63,6-7.29C86.78,422.38,84.78,418.79,80.17,416.12Z" style="fill:#263238"></path><path d="M46.07,429.07a14.07,14.07,0,0,0,4.62,4.07c8.14,4.7,21.34,4.7,29.48,0a14,14,0,0,0,4.63-4.07c-.06-2.82-2-5.62-5.67-7.77-7.57-4.37-19.83-4.37-27.39,0C48,423.45,46.13,426.26,46.07,429.07Z" style="fill:#fafafa"></path></g><g id="freepik--Plants--inject-5"><path d="M84.8,341.32,68.92,354.94,84.48,347a43.88,43.88,0,0,1-2.17,15.11,96.92,96.92,0,0,0-12,9.22l12-5.27s1.14,8-1.72,20.31c-.74,3.23-4.1,9.47-6.19,14.12a53.17,53.17,0,0,1-3.29,6.23c-.07.13-.15.25-.23.38q-4.26-2.22-8.84-4.28c-2.11-4-5-14.07-6.29-22.34C51,348.84,74.32,329.7,93.4,322.84,93.4,322.84,87.09,331.42,84.8,341.32Z" style="fill:#00EB84"></path><path d="M84.8,341.32,68.92,354.94,84.48,347a43.88,43.88,0,0,1-2.17,15.11,96.92,96.92,0,0,0-12,9.22l12-5.27s1.14,8-1.72,20.31c-.74,3.23-4.1,9.47-6.19,14.12a53.17,53.17,0,0,1-3.29,6.23c-.07.13-.15.25-.23.38q-4.26-2.22-8.84-4.28c-2.11-4-5-14.07-6.29-22.34C51,348.84,74.32,329.7,93.4,322.84,93.4,322.84,87.09,331.42,84.8,341.32Z" style="fill:#fff;opacity:0.45"></path><path d="M71.15,343.17c-3.21,3.49-5,8-6.32,12.48a63.94,63.94,0,0,0-2.38,13.86A59.8,59.8,0,0,0,67,397h0a.46.46,0,0,1-.85.37h0A60.24,60.24,0,0,1,62,369.48a65,65,0,0,1,2.61-13.9C66,351.1,67.88,346.61,71.15,343.17Z" style="fill:#fff"></path><path d="M16.35,353.77a0,0,0,0,0,0,0c.34.59,5.9,10.21,13.46,28.35L46.74,388l-13.23,0,5,12.13L55,406.71l-13.75-.19s1.4,13.71,10,20.84c4.75,3.94,7,4.42,9.11,3.63,2.53-1,4.28-4.52,6.2-9.94s2-17.05-1.36-28.94a34.83,34.83,0,0,0-4.06-9C50.94,366.73,28.21,355.7,16.35,353.77Z" style="fill:#00EB84"></path><path d="M16.35,353.77a0,0,0,0,0,0,0c.34.59,5.9,10.21,13.46,28.35L46.74,388l-13.23,0,5,12.13L55,406.71l-13.75-.19s1.4,13.71,10,20.84c4.75,3.94,7,4.42,9.11,3.63,2.53-1,4.28-4.52,6.2-9.94s2-17.05-1.36-28.94a34.83,34.83,0,0,0-4.06-9C50.94,366.73,28.21,355.7,16.35,353.77Z" style="fill:#fff;opacity:0.35000000000000003"></path><path d="M33.54,362.69c8.3,5.54,15.86,12.46,21.25,21a48.58,48.58,0,0,1,6.11,13.77,45.85,45.85,0,0,1,1.25,15,0,0,0,0,1,0,.05.07.07,0,0,1,0-.05A59,59,0,0,0,60,397.72a53.94,53.94,0,0,0-5.83-13.62c-5.16-8.51-12.5-15.56-20.63-21.33a0,0,0,0,1,0-.07S33.52,362.68,33.54,362.69Z" style="fill:#fff"></path><path d="M124.45,359.68h0a42.84,42.84,0,0,0-5.24.24,83.49,83.49,0,0,0-20.06,4.88c-2.4.89-4.8,1.91-7.17,3-1.18.57-2.35,1.16-3.51,1.79A58.08,58.08,0,0,0,73.1,381.24a37.12,37.12,0,0,0-5.29,7.43c-.18.35-.38.69-.56,1h0c-.45.92-.85,1.82-1.23,2.71-4.43,10-4.81,17-4.53,24.68.22,6,2.25,12.82,3.42,13.94a2.83,2.83,0,0,0,.52.39c1.7,1.08,4.42.45,9.48-2.38C85.07,423.37,89.06,409,89.06,409l-14.12-2.39L93.07,403l7.36-11.49L86.88,389l18.42-2.83C116.46,369,124,360.24,124.42,359.7l0,0Z" style="fill:#00EB84"></path><path d="M124.45,359.68h0a42.84,42.84,0,0,0-5.24.24,83.49,83.49,0,0,0-20.06,4.88c-2.4.89-4.8,1.91-7.17,3-1.18.57-2.35,1.16-3.51,1.79A58.08,58.08,0,0,0,73.1,381.24a37.12,37.12,0,0,0-5.29,7.43c-.18.35-.38.69-.56,1h0c-.45.92-.85,1.82-1.23,2.71-4.43,10-4.81,17-4.53,24.68.22,6,2.25,12.82,3.42,13.94a2.83,2.83,0,0,0,.52.39c1.7,1.08,4.42.45,9.48-2.38C85.07,423.37,89.06,409,89.06,409l-14.12-2.39L93.07,403l7.36-11.49L86.88,389l18.42-2.83C116.46,369,124,360.24,124.42,359.7l0,0Z" style="fill:#fff;opacity:0.35000000000000003"></path><path d="M119.21,359.92a83.49,83.49,0,0,0-20.06,4.88c-2.4.89-4.8,1.91-7.17,3-1.18.57-2.35,1.16-3.51,1.79A58.08,58.08,0,0,0,73.1,381.24a37.12,37.12,0,0,0-5.29,7.43c-.18.35-.38.69-.56,1h0c-.45.92-.85,1.82-1.23,2.71-4.43,10-4.81,17-4.53,24.68.22,6,2.25,12.82,3.42,13.94a2.83,2.83,0,0,0,.52.39,3.2,3.2,0,0,0,1.12.41c-1.25-9.27,3.31-32.79,10.21-42.46C84,379.33,101,364.74,124.42,359.7v0A44.18,44.18,0,0,0,119.21,359.92Z" style="fill:#fff;opacity:0.35000000000000003"></path><path d="M66.49,431.85a79.79,79.79,0,0,1,1.33-20.51,66.45,66.45,0,0,1,6.8-19.44c3.48-6.06,8.47-11,13.77-15.38a76.86,76.86,0,0,1,17.67-10.59.06.06,0,0,1,.08,0,.05.05,0,0,1,0,.07,102.19,102.19,0,0,0-17,11.38,74.3,74.3,0,0,0-7.46,6.95,45.42,45.42,0,0,0-6.24,8,65.37,65.37,0,0,0-7,19.1,79.31,79.31,0,0,0-1.79,20.39s0,0,0,.06A.06.06,0,0,1,66.49,431.85Z" style="fill:#fff"></path></g></g></g></g><g id="freepik--Character--inject-5"><g id="freepik--character--inject-5"><g id="freepik--Bottom--inject-5"><path d="M457.67,416.52c-1.08-14.83.58-26.2-.65-49.37h0c-.11-5.93-.33-12.29-.72-17.95-1.34-19-4.27-25.51-4.55-29.18,0,0-.5-29.58-1.74-71.18-.58-19.57-6.25-25.49-10.79-35.88H385.37c-6,25.63-7.74,81.53-7.56,107.94.1,13.47,5.53,85.52,5.64,87.17.39,5.88-.13,8.2-2.43,10.68-4.83,5.17-11.82,10.1-17.87,14.62.88,2.31,8.15,2.23,11.75.46a91.82,91.82,0,0,0,13.42-8.55c5-3.68,11.32-6.63,11.4-12.23a4.69,4.69,0,0,1,.17-1c.09-3.27,7.71-51.46,8.34-62.64.55-9.62-.62-25.94-.62-25.94l6.2-40.73s3.83,24.08,7.7,40.51c3.15,13.39,8.34,36.22,11.89,52.69h0c3.4,19,8.4,32.47,9.27,42,.26,2.26,2.82,24.52,3.89,29.62s12.17,5.23,12.88-3.54C459.91,438.16,457.87,419.32,457.67,416.52Z" style="fill:#c8856a"></path><path d="M413.81,282.74l-4.53-29.38s-17.54-2.08-23.91-8.21c0,0,8,11.35,19.93,13.2l5,24.35-2.64,40.42Z" style="fill:#f28f8f"></path><path d="M352.86,439.28c-.31,0-.81,3.38.85,4.84,1.91,1.68,7.54,4.47,15,3.59s11.56-3.16,14.58-5.63,7.25-6,10.64-6.67c3.15-.66,6.57-2.05,7.59-3s.92-5.28.92-5.28Z" style="fill:#263238"></path><path d="M400,410.47s.57,0,.75,1c.22,1.19.43,4.65.9,6.61.66,2.72,1.06,8.29.63,10.5s-5.58,3.69-8.87,4.9a41.8,41.8,0,0,0-10.67,6.58c-3.55,2.86-11,5.69-15.84,5.71-7.44,0-12.24-2-13.7-4.73-1.81-3.33-.34-5.23,8.25-9.1,1.63-.73,7.35-4,9.3-5.24a43,43,0,0,0,5.86-4.26,33.61,33.61,0,0,0,2.64-2.56,11.78,11.78,0,0,0,2.2-2.74c.1-.22.17-.49.25-.72a12,12,0,0,0,.58-2c.15-.71.25-1.74.93-2.16a5.67,5.67,0,0,1,3.06-.33,22.93,22.93,0,0,1,3.29.5c1.25.3,2.71.42,3.44,1.61a6.29,6.29,0,0,1,.67,3.11c0,.5,0,1,0,1.5,0,.21-.09.6.21.51s.61-.82.72-1.08c.24-.55.4-1.15.67-1.7a9.14,9.14,0,0,1,1.08-1.8,8.39,8.39,0,0,1,1.37-1.36,14.63,14.63,0,0,0,1.47-.93A3.41,3.41,0,0,0,400,410.47Z" style="fill:#37474f"></path><path d="M360.11,432.61c10.76.86,14.08,7.54,14.49,11.66a25.41,25.41,0,0,1-7.66,1.53c-7.44,0-12.55-2-14-4.73C351.23,437.93,352.44,435.42,360.11,432.61Z" style="fill:#fafafa"></path><path d="M376.25,432.89a.54.54,0,0,0,.34-.12.52.52,0,0,0,.08-.73,12.66,12.66,0,0,0-9.7-4,.53.53,0,0,0-.47.58.51.51,0,0,0,.57.47,11.74,11.74,0,0,1,8.78,3.55A.51.51,0,0,0,376.25,432.89Z" style="fill:#f0f0f0"></path><path d="M380.92,430.24a.52.52,0,0,0,.33-.12.53.53,0,0,0,.09-.74,12.68,12.68,0,0,0-9.7-3.94.53.53,0,1,0,.1,1.05,11.66,11.66,0,0,1,8.77,3.55A.54.54,0,0,0,380.92,430.24Z" style="fill:#f0f0f0"></path><path d="M385.25,427.2a.5.5,0,0,0,.33-.12.53.53,0,0,0,.09-.74,12.68,12.68,0,0,0-9.7-3.94.51.51,0,0,0-.47.57.51.51,0,0,0,.57.47,11.72,11.72,0,0,1,8.77,3.56A.58.58,0,0,0,385.25,427.2Z" style="fill:#f0f0f0"></path><path d="M389.49,424.15a.46.46,0,0,0,.33-.11.52.52,0,0,0,.1-.73c-2-2.63-6.68-4.4-10.6-4a.52.52,0,0,0-.47.57.54.54,0,0,0,.57.48c3.53-.35,7.86,1.27,9.66,3.6A.54.54,0,0,0,389.49,424.15Z" style="fill:#f0f0f0"></path><path d="M443.07,451.5c.29,5.08,1.08,8.45,2.88,11.43s5.21,3.91,8.65,3,7.86-3.2,8.84-7.59,1.57-7.38.78-12.09Z" style="fill:#263238"></path><path d="M457.54,414.71c1.42.11,1.84,6.93,2.66,13.76.88,7.32,3.06,10.35,3.85,16.35.89,6.86-.24,9.93-2.65,14.07s-10.91,8.22-15.1,2.28c-3.42-4.84-3.56-10.21-3.25-17.06a150.5,150.5,0,0,0-.45-17.35c-.28-5.14-1.42-10.32-.18-10.89.09.76.18,1.71.29,2.45a12,12,0,0,0,.45,2.74c.15.38.46.78.59.16a3.87,3.87,0,0,0,0-1.27c-.21-1.89.75-2.05,1.26-2.2a64.25,64.25,0,0,1,6.58-.93c1.09-.07,4.83-.24,5.32.38a4.24,4.24,0,0,1,.47,2c.13,1,.36,1.78.39,1.46.07-.74-.07-2.66-.09-3.13s-.09-1-.1-1.49S457.57,415.15,457.54,414.71Z" style="fill:#37474f"></path><path d="M464.44,448.8a17.14,17.14,0,0,1-2.65,10.42c-2.41,4.15-11.6,8.23-15.79,2.29-2.09-3-2.65-6.45-2.93-10C445.58,446.92,460.48,444.9,464.44,448.8Z" style="fill:#fafafa"></path><path d="M446.16,444a.61.61,0,0,0,.18-.05c.06,0,6.62-2.74,13-1.26a.53.53,0,0,0,.24-1c-6.76-1.56-13.46,1.22-13.71,1.34a.52.52,0,0,0-.24.7A.51.51,0,0,0,446.16,444Z" style="fill:#f0f0f0"></path><path d="M459,437.62a.54.54,0,0,0,.44-.36.53.53,0,0,0-.33-.67c-6.36-2.15-13.42,1.08-13.69,1.22a.54.54,0,0,0-.22.71.53.53,0,0,0,.71.22c.06,0,6.94-3.16,12.86-1.15A.61.61,0,0,0,459,437.62Z" style="fill:#f0f0f0"></path><path d="M458.81,432.8a.52.52,0,0,0,.44-.35.52.52,0,0,0-.31-.67c-7-2.51-13.7,1-13.95,1.18a.52.52,0,0,0-.18.72.53.53,0,0,0,.73.18s6.53-3.42,13-1.09A.63.63,0,0,0,458.81,432.8Z" style="fill:#f0f0f0"></path><path d="M458.46,428.05a.52.52,0,0,0,.14-1c-6.56-2.46-13.78,1.16-14.05,1.32a.53.53,0,0,0-.19.72.52.52,0,0,0,.72.19c.06,0,7.06-3.53,13.15-1.25A.46.46,0,0,0,458.46,428.05Z" style="fill:#ebebeb"></path><path d="M446.19,213.13c4.46,12.75,8,20.81,7.73,55.41-.29,37.36-.95,44.62-.82,48.8s2.57,11.62,4.7,32.17-.39,45-.39,45-1.47,3.31-9.33,4c-7.25.65-10.84-2.07-10.84-2.07s-9.94-40-12.69-52.39S413.81,291,413.81,291l-4.74,33s2.21,11.34,0,29.36-6.1,36.48-6.1,36.48a32.81,32.81,0,0,1-11.14,1.82,18.8,18.8,0,0,1-9.77-2.55s-6.16-53.62-6.16-74.05,1.73-71.49,8.16-101.73Z" style="fill:#37474f"></path><path d="M386.09,242.82c3.08,8.44,14.29,14.35,19.21,15.53l5.79,32.23-2,33.45,4.74-33-6.47-39.28S393.68,250.76,386.09,242.82Zm47.4,82.78c-2-10.58-3.38-21.28-4.76-32s-2.69-21.44-4.18-32.15c.65,10.8,1.43,21.58,2.5,32.34s2.35,21.51,4.3,32.19,4.17,21.2,6.39,31.79,4.53,21.12,7,31.65q-2.46-16-5.33-32C437.53,346.83,435.51,336.17,433.49,325.6Zm-49.16-36,1.76-28.18c-1.45,9.31-2.58,18.67-3.45,28S381,308.27,381,317.79c.32,9.48,1,18.83,1.81,28.23s1.71,18.75,2.82,28.11q-.4-14.13-1.12-28.23l-.71-14.09c-.24-4.69-.53-9.4-.62-14.05s.2-9.35.41-14S384.07,294.34,384.33,289.65Z" style="fill:#263238"></path></g><g id="freepik--Top--inject-5"><g id="freepik--Arm--inject-5"><path d="M377.92,164.73c-6.07,8.3-17.42,24.52-17.42,24.52s-29.54,5.84-32.38,5.42-11-3.56-13.86-4.58c-1.6-.58-10-1.88-11.75-1.63s-8.05.41-10.33.82c-1.44.26-1,2.56,1.25,3.24,1.76.52,5.71.48,7.52.62a13.23,13.23,0,0,1,3,.46,3.8,3.8,0,0,0-1.73,1.41,2.23,2.23,0,0,0-.09,2.14c-1.13.68-2.93,1.45-2.29,3.51a5.83,5.83,0,0,0,.64,1.61,1.36,1.36,0,0,0-.58.79c-.48,1.6,3,4.83,4.52,5.31,1.07.35,2.19-.05,3.53-.88,1.14-.71,0-1.69,0-1.69l1.74-.66c4.82,1,7.31,6,12.66,5a36.56,36.56,0,0,1,6.42-1.49c10.71-1,28.11.86,38.58-1.11a9.76,9.76,0,0,0,5.52-3.14C379.58,196.82,394,178,394,178L398,151C389.56,151.56,385.13,154.88,377.92,164.73Z" style="fill:#c8856a"></path></g><path d="M309.72,205.14c4.82,1,7.31,6,12.66,5a36.56,36.56,0,0,1,6.42-1.49l1-.08h0s-4.21-.1-7.58-.08A5.67,5.67,0,0,1,317.2,206c-.59-.69-1.06-2.36-2.25-3s-5.84-.92-5.84-.92,2.05.15,2.44,1.24S311.59,204.55,309.72,205.14Z" style="fill:#af6152"></path><path d="M304,193.6a15.92,15.92,0,0,1,3.12,1.46l-4-.92Z" style="fill:#af6152"></path><path d="M316.64,194.67a3.86,3.86,0,0,1,.54,2.22,1.42,1.42,0,0,1-.64,1,2.08,2.08,0,0,1-1.19.26c-1.55,0-3.05-.37-4.53-.5a20.61,20.61,0,0,0-2.22-.1,6.65,6.65,0,0,0-2.09.28,1.34,1.34,0,0,0-1,1.21c-.05.46.45.88,1.08,1.17a13.6,13.6,0,0,0,2.07.72,18.84,18.84,0,0,0,2.15.55,13.86,13.86,0,0,1,4.48,1.3,4.58,4.58,0,0,1,1.46,1.93,8.3,8.3,0,0,0,1.21,1.83,7.19,7.19,0,0,0,4,1.92,7,7,0,0,1-4.26-1.61,7.53,7.53,0,0,1-1.42-1.86,4,4,0,0,0-1.31-1.6,16,16,0,0,0-4.29-1,18.58,18.58,0,0,1-2.26-.53,15.08,15.08,0,0,1-2.23-.76,3.86,3.86,0,0,1-1.08-.74,1.86,1.86,0,0,1-.55-1.39,2.29,2.29,0,0,1,.52-1.33,2.53,2.53,0,0,1,1.17-.75,7.71,7.71,0,0,1,2.4-.24,16.28,16.28,0,0,1,2.32.23c1.52.26,3,.66,4.46.84a1.81,1.81,0,0,0,1-.13,1.14,1.14,0,0,0,.57-.8A4.05,4.05,0,0,0,316.64,194.67Z" style="fill:#af6152"></path><path d="M300.48,202.27a28.21,28.21,0,0,0,3.3,3.26,8.9,8.9,0,0,0,.87.67,2.7,2.7,0,0,0,1,0c.76-.1,1.52-.27,2.3-.41a11.17,11.17,0,0,1-2.23.79,2.41,2.41,0,0,1-1.29,0,6.9,6.9,0,0,1-1-.72A11.9,11.9,0,0,1,300.48,202.27Z" style="fill:#af6152"></path><path d="M302.13,197.15a46.55,46.55,0,0,0,2.54,4.29c.24.31.48.7.77.74a4.86,4.86,0,0,0,1.17.1c.83,0,1.66-.09,2.5-.16a11.56,11.56,0,0,1-2.48.55,3.92,3.92,0,0,1-1.32,0,1.07,1.07,0,0,1-.37-.16,2.18,2.18,0,0,1-.27-.24c-.15-.17-.28-.34-.41-.51a14.32,14.32,0,0,1-1.25-2.22A13.22,13.22,0,0,1,302.13,197.15Z" style="fill:#af6152"></path><path d="M452.88,236.65c-2.69-19.59-6.22-26.76-6.84-29.12-1.56-5.95,2.22-16.54,3.28-22.66,2.3-13.34-2.39-29.25-5.44-32,0,0-3.52-1-6.48-1.56-2.34-.48-4.15-.8-7.24-1.62-7.68-2-16.17-.4-19.12-.17-1.45.11-3.4-.26-6,.29-2.09.44-7,1.16-7,1.16a44.16,44.16,0,0,0-9.47,11.62c-3.54,6-6.51,9.91-6.75,24-.28,16.56-.86,32.58-1.42,49.76C393.9,245.11,435,246.55,452.88,236.65Z" style="fill:#455a64"></path><path d="M421,88.36c-3.69,1.66-5.29,3-8.53-.43-3.79-3.1-9.49-1.87-12.35,1.92-1,1.24-2,2.87-3.53,2.86-.86,0-2-.57-3.54-.74a6.1,6.1,0,0,0-5.85,3.37c-.48,1.32-.07,2.8.08,4.21a3.7,3.7,0,0,1-1.48,3.59,2.21,2.21,0,0,1-3.21-1.25c-1.19,1-1.05,3-.25,4.17.95,1.44,3.56,2,5.16,2.26-.82-.15-2.07,3.31-2.22,3.87a8.28,8.28,0,0,0,.29,5.06c.85,2.59,2.48,6.11.59,8.64-1.43,1.93-4.49,2-6.49.64a8.29,8.29,0,0,0,8.56,6.25c-.34,0-.54,3.38-.56,3.76a11.66,11.66,0,0,0,.41,3.72c.66,2,3,3.31,4.93,3.9a34.37,34.37,0,0,0,6.41.9,18.7,18.7,0,0,1,4.26.78c1.26.42,2.4,1.1,3.68,1.53a27.78,27.78,0,0,0,5.05,1.31,13.57,13.57,0,0,0,4.36-.05c1.19-.23,2.28-1,3.42-1.09,3.42-.35,6.91-.27,9.66-2.61,1.55-1.33,2.92-3,4.77-3.83,2.21-1,4.81-.89,7.1-1.77a8.51,8.51,0,0,0,5.32-7.16,7.24,7.24,0,0,0,4.57-.63,3.9,3.9,0,0,0,2.08-3.87c-1.86,1.28-4.59.48-6-1.26a9.85,9.85,0,0,1-1.83-6.37c0-3.28.72-6.53.7-9.81,0-2.75-.71-7.08-3.39-8.6-2.51-1.41-5.69-1.82-7.75-4A16.2,16.2,0,0,1,433,93.39C430.82,88.91,425.89,86.18,421,88.36Z" style="fill:#263238"></path><path d="M395.73,112.08c2.63-5.11,5.94-5.17,9.71-5.94,7.4-1.5,9.34-2.4,12.57-6.08-2.14,5.06,3,13.25,6.25,14.15-1.42,4.1-.66,8.44,2.93,9.74,1.9-4.33,6.6-4.94,9.05-2.18,2.76,3.12,2.51,9-1.19,12.46-4,3.72-6.52.62-6.52.62l-.3,14.53s-3.08,10.22-25.82,17.89a19.23,19.23,0,0,1,5-17.71l.12-5.3c-2.41-.06-6.09-.69-8.23-2.21-1.92-1.37-5.69-4.13-5.19-18.15C394.34,117.63,394.73,114,395.73,112.08Z" style="fill:#c8856a"></path><path d="M413.52,130.34,406.26,132a3.65,3.65,0,0,0,4.36,2.94A3.9,3.9,0,0,0,413.52,130.34Z" style="fill:#af6152"></path><path d="M408.86,134.85a3.49,3.49,0,0,0,1.76.06,3.85,3.85,0,0,0,2.84-2.81A4.61,4.61,0,0,0,408.86,134.85Z" style="fill:#ffa8a7"></path><path d="M408.78,117l-2,11-5.43-2.19C404.19,121.26,406.21,118.72,408.78,117Z" style="fill:#af6152"></path><path d="M407.53,144.26c5.55-.39,15-1.82,18.53-8.12a14.05,14.05,0,0,1-3.8,6c-4.72,3.9-14.79,4.88-14.79,4.88Z" style="fill:#af6152"></path><path d="M414.51,114.11l4.5,2a2.57,2.57,0,0,0-1.31-3.31A2.4,2.4,0,0,0,414.51,114.11Z" style="fill:#263238"></path><path d="M397.33,114.43l4.71-1.5a2.37,2.37,0,0,0-3-1.65A2.59,2.59,0,0,0,397.33,114.43Z" style="fill:#263238"></path><path d="M412.78,119.58a1.91,1.91,0,1,0,2.05-1.77A1.91,1.91,0,0,0,412.78,119.58Z" style="fill:#263238"></path><path d="M397.94,118.32a1.91,1.91,0,1,0,2-1.77A1.9,1.9,0,0,0,397.94,118.32Z" style="fill:#263238"></path><g id="freepik--arm--inject-5"><path d="M451.53,252.48c3.18,1.21,7.7-2.48,9-3.79s.09-4.79-.36-7.67.7-7.6-2.94-6.57S445.4,244.28,451.53,252.48Z" style="fill:#af6152"></path><path d="M443.87,152.91c8,1.87,11.32,1.51,17.72,14,6,11.65,16.45,31.67,18.31,36.62,2.35,6.24,3.35,8.44-2.44,15.16-5.3,6.15-23.18,22.22-25.58,24.55-2.12,2.06-1.62,8.55,5.1,8.18,0,0-5.44,4-8.17,3.29-2.35-.64-5.93-3.06-8.75-10.62-1.78-4.77.35-8.21,4.11-13,4.49-5.74,16.06-22.13,16.06-22.13l-15.16-24.06a33,33,0,0,1-4.61-11.8C439.27,166.51,438.78,157.37,443.87,152.91Z" style="fill:#c8856a"></path></g></g></g></g></svg>